PathFileType	4	(X/Y/Z)	Patient4_TMGait_0pt5_01_left_25.trc.trc
DataRate	CameraRate	NumFrames	NumMarkers	Units	OrigDataRate	OrigDataStartFrame	OrigNumFrames
73.684210526316	73.684210526316	7	33	mm	73.684210526316	53	       141
Frame#	Time	L.ASIS			Sacral			L.Shoulder			Chest			R.Shoulder			Neck			R.ASIS			R.Thigh.Superior			R.Thigh.Lateral			R.Thigh.Inferior			R.Patella			L.Thigh.Superior			L.Thigh.Lateral			L.Thigh.Inferior			L.Patella			L.Shank.Superior			L.Shank.Lateral			L.Shank.Inferior			R.Shank.Superior			R.Shank.Lateral			R.Shank.Inferior			R.Heel			R.Midfoot.Superior			R.Midfoot.Lateral			R.Toe			L.Heel			L.Midfoot.Lateral			L.Midfoot.Superior			L.Toe			L.Elbow			L.Wrist			R.Elbow			R.Wrist			
		X1	Y1	Z1	X2	Y2	Z2	X3	Y3	Z3	X4	Y4	Z4	X5	Y5	Z5	X6	Y6	Z6	X7	Y7	Z7	X8	Y8	Z8	X9	Y9	Z9	X10	Y10	Z10	X11	Y11	Z11	X12	Y12	Z12	X13	Y13	Z13	X14	Y14	Z14	X15	Y15	Z15	X16	Y16	Z16	X17	Y17	Z17	X18	Y18	Z18	X19	Y19	Z19	X20	Y20	Z20	X21	Y21	Z21	X22	Y22	Z22	X23	Y23	Z23	X24	Y24	Z24	X25	Y25	Z25	X26	Y26	Z26	X27	Y27	Z27	X28	Y28	Z28	X29	Y29	Z29	X30	Y30	Z30	X31	Y31	Z31	X32	Y32	Z32	X33	Y33	Z33	

53	34.105714285714	865.704835780015	961.955743200680	299.563180237299	647.592328447292	1007.575899560540	452.639744519428	824.610876561815	1437.052518873926	271.587146636378	922.353172419631	1368.855207953250	436.251383512111	831.738714611142	1442.835197118071	607.756259819983	822.522099478957	1499.439345315107	422.131420454230	872.552934457275	949.618770220450	574.611883012512	953.481494663988	776.242621717831	551.633090053189	908.775926481094	655.735344760988	623.353409806393	1000.976544164031	613.884711213015	548.911519293947	1016.987691401307	501.568508806106	571.608886882346	912.883414049971	750.922630779437	331.138819947358	824.472803852833	635.099401716839	276.452626407339	908.209084817091	558.308026190478	341.581556381296	907.915765550819	487.829146098212	353.898643312727	879.989412092950	415.355494610598	347.564506518210	789.755254581894	301.423447194424	297.263012771531	835.833993320755	191.908383823880	373.653611789814	943.402467097530	425.681714433151	577.338523089530	823.126661600750	381.949150853195	636.184385252893	813.051399306456	272.361738811666	587.741841766324	613.274817407347	202.155292923917	556.634726886026	784.255340786792	154.620509560134	602.216927944083	673.936829881119	148.464598792349	633.386369732690	855.100685406749	47.208598366984	636.260446516217	703.904602646310	37.613257541586	417.431423188968	778.483431961693	34.823378736071	336.663880898854	861.278182508681	95.585104693167	363.624830975176	990.170812176458	44.632090949286	336.904750281244	781.797427993534	1091.633095059551	135.034682828393	932.511217771461	877.488331977318	148.434048363080	764.272487198723	1104.949021634730	728.269999885087	847.090715239645	856.574022239958	732.491030865248	
54	34.119285714286	864.486668480165	962.400051033983	298.717001920382	645.552695779613	1008.365643956795	450.609556561611	825.098301404468	1437.449727553835	270.145402040013	921.218367228216	1369.253450367785	435.720234916496	829.320091850729	1443.574269810638	606.428892492001	821.798561440982	1500.002139754538	420.711172767424	869.811063848766	950.657334753771	573.862702896729	952.602655900392	779.592319399353	550.459519904127	910.199977922843	658.554254623335	622.523361296431	1002.660345475112	617.995881218977	547.736217586570	1020.870321956815	506.350798271458	570.599007506629	909.439770105002	750.245401647960	330.875961912077	820.015994093393	635.254199466333	275.880502202855	902.656419844834	557.721002768009	341.391272500463	901.578436356486	487.434775016054	353.809473879424	873.682324257794	415.320083353700	347.321965540417	783.332493459565	301.495944848720	297.031153772656	829.154673455309	191.926323307690	373.496813258373	949.422221523313	428.779939946642	576.551653668296	830.705567217571	381.417617499933	635.535864816256	824.020770528209	271.574460358776	587.217575310160	626.739989849816	194.825210741214	556.467216071459	799.027295614787	153.161147754391	601.646158762895	689.256514738622	143.433737079619	633.270917360728	873.322030721171	48.354834771480	635.735498785017	697.031130822100	37.680993976800	417.385171367993	771.659235680372	34.835658198648	336.644011729535	854.501246408801	95.544838793131	363.566857129603	983.372927864148	44.448798291719	336.897393367078	786.672668139535	1091.928143083543	132.355754163330	941.649892551493	881.137670777493	147.743619917391	754.821730641869	1107.058236892711	725.923336375220	825.744034523455	854.802248751460	730.592629601424	
55	34.132857142857	863.261401169278	962.761176717536	298.030422013909	643.521297166927	1009.173413838112	448.698288361514	825.628999537171	1437.852488981908	268.858591504095	920.127651170973	1369.616468114107	435.299845917083	826.993260939662	1444.271900324484	605.218748060739	821.075524158685	1500.522423276016	419.453144489196	867.097018978512	951.649125406534	573.233301259268	951.326659553340	782.506894664815	549.426252831106	910.893099097580	661.050234719203	621.831084107981	1003.354963087847	621.525802301427	546.602046501718	1023.617353549547	510.833525711534	569.694605104841	905.985746726762	749.586352070675	330.839023624678	815.636230755944	635.408674737259	275.376213861232	897.175378219206	557.150846340518	341.271715154407	895.326370888673	487.040976533527	353.735657167251	867.444353318311	415.277202471520	347.101542124248	776.944074030299	301.585522324401	296.823287276392	822.505780603359	191.946325756748	373.340797249573	954.787794650316	431.494685708589	575.949779569953	838.183056998990	379.765599680749	635.198979249408	835.663200090007	269.731501886056	587.011992117572	641.692334279785	185.102198839125	556.756546228537	815.334671268287	150.636658819620	601.449972937754	706.375102072446	136.578556776381	633.611815395325	893.757809076668	49.255194317136	635.593404789679	690.170904083024	37.758094941673	417.339972516852	764.839567860794	34.851199246187	336.629545815261	847.736788618739	95.506836709373	363.510278972217	976.584360144679	44.246497325189	336.896113893220	791.393262412857	1092.295231487635	129.980897074256	950.776756368183	885.119063885503	147.314598587216	745.451717008683	1109.336953191617	723.717043462407	805.324500707987	854.080931185359	728.528427400371	
56	34.146428571429	862.016800851846	963.015459503572	297.510958557018	641.490923288225	1009.954622134525	446.921155277654	826.180588668516	1438.202764119525	267.712825844006	919.071768661308	1369.905692107818	434.981320604380	824.749233855421	1444.899728162762	604.110851516201	820.348389573817	1500.961580246284	418.333675925492	864.424902481518	952.533454861380	572.732718308940	949.671910119924	784.887164826075	548.557805281813	910.835648309230	663.123660274636	621.289644337439	1003.054200950205	624.355080264398	545.534823688962	1025.216677603442	514.907737730854	568.896886493979	902.546469013472	748.942444507378	330.957558681610	811.339027375813	635.547976041714	274.915446985569	891.795088745170	556.589536591100	341.168609599793	889.191432335723	486.640599460898	353.633908854998	861.303665835923	415.209233536968	346.876131162032	770.609730603076	301.679127685436	296.622539103502	815.903272404440	191.959141158077	373.177189286410	959.464029616463	433.787463139246	575.531552849833	845.561691625121	377.092452230299	635.180446286407	847.888822609937	267.010927079532	587.120651671374	658.121188778167	173.426519938837	557.489625262686	833.007275671734	147.307138808031	601.630169747508	725.174576448897	128.289497379589	634.384013179325	916.068843624618	50.084133277588	635.812888957089	683.329864015556	37.842211476195	417.292498358580	758.026342693572	34.867363588342	336.617702913905	840.986359433453	95.469782222849	363.452799978206	969.806832221371	44.026810084328	336.898341785860	795.943379429612	1092.670976261096	127.881712165954	959.874173824264	889.386918636345	147.123492971115	736.174799929102	1111.740174229925	721.625745816952	785.932788813487	854.239017869354	726.372406247888	
57	34.160000000000	860.749063985266	963.150889235305	297.157456612982	639.460854626251	1010.666700720179	445.296514672015	826.720668130749	1438.445347742568	266.696318720958	918.038032496468	1370.088979228446	434.756213457922	822.577772945892	1445.436329989332	603.091867375805	819.612592553281	1501.286330601316	417.330545925445	861.808071104801	953.255033645738	572.366290364520	947.648976863795	786.649566734176	547.878965886963	910.004199906179	664.697019335412	620.914081194447	1001.761717249017	626.398421856311	544.569403385502	1025.675568468643	518.490286934047	568.207137506662	899.148768874002	748.306350884439	331.161607821740	807.125815651569	635.658933019755	274.482413651679	886.535001796203	556.027717964143	341.041282612191	883.193908195896	486.227275421718	353.479120425921	855.279656056293	415.101396268310	346.630557788432	764.344175012037	301.764826874016	296.418688927763	809.358588326218	191.956199091803	373.004419054088	963.425884745791	435.651087459224	575.290296298553	852.842431311212	373.546249791018	635.473737171163	860.586141717652	263.643516223742	587.519531355046	675.972768698774	160.318870386725	558.622878929714	851.838081151392	143.484360180013	602.155248510877	745.492788257387	119.020216398111	635.528260934921	939.867650360693	51.064755821563	636.330592951952	676.511089673835	37.930048057671	417.239506285752	751.220379932799	34.881477191726	336.606357391265	834.249493317177	95.432648245134	363.393898008316	963.040114157844	43.793657104911	336.902133112846	800.323360941250	1092.988911196933	126.035524720156	968.921298977268	893.880535314596	147.143993517083	727.024177530709	1114.223601712115	719.626250998710	767.645240476630	855.099822215517	724.190012868142	
58	34.173571428571	859.464199166199	963.166866261898	296.962311475556	637.438038883838	1011.273788521532	443.842754776063	827.211216656340	1438.534450167787	265.799960808103	917.012746289849	1370.144152219136	434.616781218723	820.470124984572	1445.869406461374	602.151834287103	818.863969855029	1501.472505529159	416.424919770035	859.257274922931	953.769633699149	572.136519986351	945.262903074773	787.735592667767	547.412138046892	908.380190958780	665.721878617709	620.721788528386	999.499657206297	627.612428333028	543.748564003702	1025.024653740511	521.527909520442	567.629792613281	895.818553837720	747.667892850332	331.391021756185	802.992991435891	635.732086983410	274.070896153534	881.400720778168	555.456026078988	340.866818857259	877.338321363352	485.796404333245	353.265554082142	849.379028162510	414.943917693145	346.361609148625	758.154030854481	301.832879530111	296.207782959797	802.876329896375	191.930599090753	372.826967673312	966.661439818436	437.108854235954	575.217098444609	860.020387323373	369.314364298434	636.059286356741	873.623389749550	259.894247921670	588.167654176806	695.137540991208	146.350912757024	560.084914349254	871.587439332697	139.502168103203	602.963147686860	767.118441021364	109.255071206240	636.955507689604	964.731701507527	52.432510822413	637.047779070036	669.714189215745	38.017715609498	417.178525156350	744.421196245698	34.891083528283	336.594177808715	827.523667364214	95.394848574201	363.334501538188	956.281988772549	43.553135913211	336.906220841814	804.545065892381	1093.187536476358	124.429150751640	977.894859006811	898.533425256994	147.351036993329	718.055521916949	1116.744450832325	717.701710419566	750.520249240396	856.490797725913	722.035943943761	
59	34.187142857143	858.177562383612	963.072448881400	296.914795335496	635.436418600271	1011.750450078831	442.574955812540	827.613912667135	1438.438704605488	265.017660954969	915.983425135948	1370.061014200775	434.556539733985	818.421035764124	1446.196647460399	601.286201078700	818.098992498558	1501.507551544104	415.603010991500	856.779481009158	954.048491014375	572.044532214760	942.518068436060	788.120151916400	547.175427390590	905.960754996108	666.183180166523	620.731518462054	996.317999221338	628.000169008884	543.120204494993	1023.321648937427	523.998575414398	567.173710864789	892.577936715115	747.016022977837	331.603378912111	798.931945109204	635.763040362636	273.683996786008	876.382236728144	554.866585501805	340.641758261293	871.612118179897	485.346050733948	353.005154659894	843.593693899364	414.733391871632	346.076740590721	752.036104455594	301.876809617033	295.991033223297	796.453100095445	191.878142594412	372.653600585646	969.174065727208	438.210449712926	575.302592301718	867.080185494896	364.610986212045	636.905155536624	886.849049035891	256.040473756421	589.010767618501	715.437289495656	132.111853825005	561.783142893088	891.985521838332	135.684690077472	603.966803483267	789.785534507128	99.473781334474	638.553915357420	990.215648198337	54.396085359474	637.839152473571	662.935320051142	38.101136990611	417.108639046979	737.627025300695	34.894259869102	336.580597180177	820.804661381941	95.356336174622	363.276441208435	949.528629944869	43.313082963730	336.909946000021	808.626451579359	1093.217035636367	123.060901047580	986.769371348282	903.281570202882	147.724295743345	709.345893720839	1119.260706004337	715.844990039152	734.605008795410	858.250692370483	719.954251501193	
